<?xml version="1.0" encoding="UTF-8"?>
<svg xmlns="http://www.w3.org/2000/svg" viewBox="0 0 720 200" width="720" height="200" role="img" aria-label="Hetzner PHP client architecture">
  <defs>
    <linearGradient id="bg" x1="0%" y1="0%" x2="100%" y2="100%">
      <stop offset="0%" style="stop-color:#f4f6f8"/>
      <stop offset="100%" style="stop-color:#e8ecf0"/>
    </linearGradient>
    <marker id="arrow" markerWidth="8" markerHeight="8" refX="7" refY="4" orient="auto">
      <path d="M0,0 L8,4 L0,8 Z" fill="#334155"/>
    </marker>
  </defs>
  <rect width="100%" height="100%" fill="url(#bg)"/>
  <text x="360" y="28" text-anchor="middle" font-family="system-ui,sans-serif" font-size="15" font-weight="600" fill="#1a1a1a">ghostcompiler/hetzner — request flow</text>
  <rect x="40" y="55" width="120" height="44" rx="6" fill="#2563eb" stroke="#1d4ed8"/>
  <text x="100" y="82" text-anchor="middle" font-family="system-ui,sans-serif" font-size="12" fill="#fff">Your app</text>
  <rect x="200" y="55" width="140" height="44" rx="6" fill="#0d9488" stroke="#0f766e"/>
  <text x="270" y="82" text-anchor="middle" font-family="system-ui,sans-serif" font-size="12" fill="#fff">HetznerClient</text>
  <rect x="380" y="55" width="140" height="44" rx="6" fill="#7c3aed" stroke="#6d28d9"/>
  <text x="450" y="75" text-anchor="middle" font-family="system-ui,sans-serif" font-size="11" fill="#fff">Resource clients</text>
  <text x="450" y="90" text-anchor="middle" font-family="system-ui,sans-serif" font-size="9" fill="#e9d5ff">servers, zones, …</text>
  <rect x="560" y="55" width="120" height="44" rx="6" fill="#ea580c" stroke="#c2410c"/>
  <text x="620" y="82" text-anchor="middle" font-family="system-ui,sans-serif" font-size="12" fill="#fff">CurlTransport</text>
  <path d="M160 77 L200 77" stroke="#334155" stroke-width="2" marker-end="url(#arrow)"/>
  <path d="M340 77 L380 77" stroke="#334155" stroke-width="2" marker-end="url(#arrow)"/>
  <path d="M520 77 L560 77" stroke="#334155" stroke-width="2" marker-end="url(#arrow)"/>
  <rect x="200" y="130" width="320" height="44" rx="6" fill="#475569" stroke="#334155"/>
  <text x="360" y="157" text-anchor="middle" font-family="system-ui,sans-serif" font-size="12" fill="#fff">https://api.hetzner.cloud/v1</text>
  <path d="M620 99 L620 118 L360 118 L360 130" fill="none" stroke="#334155" stroke-width="2" marker-end="url(#arrow)"/>
</svg>
